<?xml version="1.0" encoding="utf-8"?>
<!-- Generator: Adobe Illustrator 21.1.0, SVG Export Plug-In . SVG Version: 6.00 Build 0)  -->
<svg version="1.1" id="Слой_1" xmlns="http://www.w3.org/2000/svg" xmlns:xlink="http://www.w3.org/1999/xlink" x="0px" y="0px"
	 viewBox="0 0 148.9 148.9" style="enable-background:new 0 0 148.9 148.9;" xml:space="preserve">
<style type="text/css">
	.st0{clip-path:url(#SVGID_2_);fill:#FFFFFF;}
</style>
<g>
	<defs>
		<rect id="SVGID_1_" width="148.9" height="148.9"/>
	</defs>
	<clipPath id="SVGID_2_">
		<use xlink:href="#SVGID_1_"  style="overflow:visible;"/>
	</clipPath>
	<path class="st0" d="M74.5,13.4c19.9,0,22.2,0.1,30.1,0.4c7.3,0.3,11.2,1.5,13.8,2.6c3.5,1.4,6,3,8.6,5.6c2.6,2.6,4.2,5.1,5.6,8.6
		c1,2.6,2.2,6.6,2.6,13.8c0.4,7.9,0.4,10.2,0.4,30.1c0,19.9-0.1,22.2-0.4,30.1c-0.3,7.3-1.5,11.2-2.6,13.8c-1.4,3.5-3,6-5.6,8.6
		c-2.6,2.6-5.1,4.2-8.6,5.6c-2.6,1-6.6,2.2-13.8,2.6c-7.9,0.4-10.2,0.4-30.1,0.4s-22.2-0.1-30.1-0.4c-7.3-0.3-11.2-1.5-13.8-2.6
		c-3.5-1.4-6-3-8.6-5.6c-2.6-2.6-4.2-5.1-5.6-8.6c-1-2.6-2.2-6.6-2.6-13.8c-0.4-7.9-0.4-10.2-0.4-30.1c0-19.9,0.1-22.2,0.4-30.1
		c0.3-7.3,1.5-11.2,2.6-13.8c1.4-3.5,3-6,5.6-8.6c2.6-2.6,5.1-4.2,8.6-5.6c2.6-1,6.6-2.2,13.8-2.6C52.2,13.5,54.6,13.4,74.5,13.4
		 M74.5,0C54.2,0,51.7,0.1,43.8,0.4c-7.9,0.4-13.3,1.6-18.1,3.5c-4.9,1.9-9,4.4-13.2,8.6c-4.1,4.1-6.7,8.3-8.6,13.2
		c-1.8,4.7-3.1,10.2-3.5,18.1C0.1,51.7,0,54.2,0,74.5s0.1,22.8,0.4,30.7c0.4,7.9,1.6,13.3,3.5,18.1c1.9,4.9,4.4,9.1,8.6,13.2
		c4.1,4.1,8.3,6.7,13.2,8.6c4.7,1.8,10.2,3.1,18.1,3.5c7.9,0.4,10.5,0.4,30.7,0.4s22.8-0.1,30.7-0.4c7.9-0.4,13.3-1.6,18.1-3.5
		c4.9-1.9,9.1-4.4,13.2-8.6c4.1-4.1,6.7-8.3,8.6-13.2c1.8-4.7,3.1-10.2,3.5-18.1c0.4-7.9,0.4-10.5,0.4-30.7s-0.1-22.8-0.4-30.7
		c-0.4-7.9-1.6-13.3-3.5-18.1c-1.9-4.9-4.5-9.1-8.6-13.2c-4.1-4.1-8.3-6.7-13.2-8.6c-4.7-1.8-10.2-3.1-18.1-3.5
		C97.2,0.1,94.7,0,74.5,0"/>
	<path class="st0" d="M74.5,36.2c-21.1,0-38.2,17.1-38.2,38.2c0,21.1,17.1,38.2,38.2,38.2c21.1,0,38.2-17.1,38.2-38.2
		C112.7,53.4,95.6,36.2,74.5,36.2 M74.5,99.3c-13.7,0-24.8-11.1-24.8-24.8c0-13.7,11.1-24.8,24.8-24.8s24.8,11.1,24.8,24.8
		C99.3,88.2,88.2,99.3,74.5,99.3"/>
	<path class="st0" d="M123.2,34.7c0,4.9-4,8.9-8.9,8.9s-8.9-4-8.9-8.9c0-4.9,4-8.9,8.9-8.9S123.2,29.8,123.2,34.7"/>
</g>
</svg>
