<?xml version="1.0" encoding="utf-8"?>
<!-- Generator: Adobe Illustrator 21.1.0, SVG Export Plug-In . SVG Version: 6.00 Build 0)  -->
<svg version="1.1" id="Слой_1" xmlns="http://www.w3.org/2000/svg" xmlns:xlink="http://www.w3.org/1999/xlink" x="0px" y="0px"
	 viewBox="0 0 164.5 60.3" style="enable-background:new 0 0 164.5 60.3;" xml:space="preserve">
<style type="text/css">
	.st0{clip-path:url(#SVGID_2_);}
</style>
<g>
	<defs>
		<rect id="SVGID_1_" y="0" width="164.5" height="60.3"/>
	</defs>
	<clipPath id="SVGID_2_">
		<use xlink:href="#SVGID_1_"  style="overflow:visible;"/>
	</clipPath>
	<path class="st0" d="M160.1,36.6c-5.5-6.1-11.7-9.5-17.8-14.8c-1.1-0.9-1.9-1.5-3.1-2.2c-2.3-1.2-1.1-0.7-2.3-2.3
		c-0.7-1-1.3-0.1-2.5-0.6c-0.9-0.3-1.8-1.3-3-1.9c-1.9-0.9-4.4-2.6-6.3-3c-1.5-0.4-4.8-0.8-6.1-1.3c-1.2-0.5-1.7-1.3-3-1.4
		c-1.2,0-1.4,0.3-3.1,0.1c-4.4-0.5-13.2-1.1-17.8-0.9c-1.7,0.1-4.3,0.1-5.9-0.1C72.8,7,74.2,1.7,64.8,0.5c-4.1-0.5-7.5-0.6-11.6-0.2
		c-13,1.2-11.4,2.2-23,4.6c-5,1.1-17.7,6.3-22.8,8.5c-2.4,1-3.6,2.4-5.5,4.1c-0.5,0.5-1.1,0.9-1.7,1.3c-0.1,1-0.2,2.2-0.2,3.3
		c0.3,0.6,0.6,1.2,0.8,1.8c0.8-0.1,1.5,0,2.2,0.2c8.8,3.1,16.3,17.6,28.7,23.1c12.2,5.4,12.5,0.7,23.6,3.6c3.5,0.9,8.6,3.6,12.2,5.1
		c4.8,1.9,7.4,1.1,12.1,2.3c5.9,1.5,4.9,3,11.8,1.5c7.3-1.5,5.7-0.5,8.7-0.7c2.5-0.2,6.6-2.3,8.4-3.7c3.2-2.5,3.9-1,5.5-2.3
		c2.1-1.6,2.7-1.6,5.4-2.2c12.5-2.8,13.3-12.9,34.4-8.9C158.9,42.9,170.9,48.6,160.1,36.6 M142.7,24.3c-1.9,1-6.5,2.4-8.9,3.1
		c-3,0.9-6.1,2.7-8.9,3.6c-1.6,0.5-7.1,0.3-9.1,0.5c-1.6,0.1-8,1.3-8.8,0.5c0.2-0.7,3-2.3,3.9-3c1.5-1.2,2.7-2.5,4.2-3.7
		c0.9-0.7,3.3-2.1,4.3-2.6c5.3-2.6,5.8-2.3,11.4-2.6c1.7-0.1,1.1,0.3,2.2,0.4C137,20.8,133.7,17.1,142.7,24.3 M132.3,17.1
		c-1.2,0.7-5.1,0.9-6.6,1.1c-1.9,0.3-4.4,1.6-6.3,2.5c-5,2.3-8.9,8-15.1,10.4c-1.7,0.7-1.4,1.3-3.2,1.2c-2.6-0.2-4.4-1-6.7-1.5
		l-13.5-4.1c5.4-3,4-3.8,12.5-7.3c1.4-0.6,5-1.8,6.4-2.1c2.2-0.3,4.1-1.3,6.2-1.9c5.1-1.4,1.1,0.2,6.3-2.3
		C121,9.1,127.5,15.6,132.3,17.1 M91,9.7c4.4-0.3,17.8,0.1,21.1,1.1c-11.6,6.5-14.9,3.2-30.2,13c-5.1,3.3-6.2,0.4-15.7-0.9
		c-1-0.1-7.4-0.7-8-0.6c-1.4,0.3-6.3,0.3-7.6-0.2c4.6-4.7,8.3-5.3,13.7-7.9c8.2-4,8.8-2.4,13.8-6.2C80.4,8.6,89.4,9.8,91,9.7
		 M50.5,2.3c3.2-0.9,9.1-0.3,12.5,0c5.3,0.4,8.4,2,12.7,5C75,7.7,75,7.4,74.2,7.8c-3.5,1.7-2.5,0.9-5.9,2.6
		c-0.7,0.4-0.6,0.2-1.4,0.7c-1.3,0.7-1.7,0.6-3,1.1c-2.1,0.9-3.9,1.9-6.1,2.9c-7.1,3.2-8.5,6.5-11.8,7c-6.5,1-12.2-0.6-18.5-1.3
		c2.6-1,12-7.1,14.7-9.3C43.6,10.5,49,2.8,50.5,2.3 M25.4,8.9c1.8-0.6,3.4-1.5,5.3-2.1c1.8-0.6,3.5-0.8,5.1-1.2
		c2.3-0.6,8.5-2.4,10.3-2.2c-1.1,1.7-2.5,4.3-4,5.6c-1.8,1.6-2.7,3.2-5,4.4c-7.6,4-8.1,7.7-18.7,5.7c-0.9-0.2-1.7-0.5-2.7-0.7
		c-3.6-0.6-10-0.2-10.5-0.6C8,14.7,20.4,10.5,25.4,8.9 M49.6,47.9c-1.5,0.2-3.6-0.3-5.7,0c-1.9,0.2-3.9-0.3-5.8-0.5
		c-3.5-0.5-9-3.9-12-5.9c-4.4-3-5.9-6-7.7-7.6c-1.1-1-1.7-1.5-2.7-2.6c-3.4-3.9-7.4-6.6-10.8-10c1.5-1.4,4.2-0.8,6.2-1
		c2.8-0.2,2.1,0.4,6.5,0.8c2.2,0.2,4.4,1,6.5,1.4c1.5,0.3,1.7,0.1,3.4,0.9c6.6,3,9.9,6.3,15.2,12.6c4.9,5.9,4.5,7,5.7,8.8
		C49.1,46,49.8,46.7,49.6,47.9 M74.9,55.1c-4.6-0.1-5-0.6-9.4-2.8c-1.4-0.7-1.9-0.5-3.2-1.2c-4.4-2.3-2.6-1.3-6.5-2.4
		c-1.8-0.5-1.1-0.6-2.4-2C51.1,44.4,46,35.6,43,32.5c-0.9-0.9-2-1.8-3-2.8c-1.4-1.5-4.8-4.2-5.8-5.4c2.3-0.6,9.6,1.4,12.1,2.2
		c2.5,0.9,4.1,1.1,6.4,2.7c2.2,1.5,4.3,2.8,6.1,4.8c3.4,3.8,5.7,7.5,9.5,11.1c1.6,1.5,9.4,9.2,10,10.6
		C77.1,55.5,76.1,55.1,74.9,55.1 M86.8,58c-0.8-1.5,0.1-1.2-1.7-2.3c-1.3-0.7-1.3-1.2-2.6-1.9c-1.7-0.9-4.7-2.2-5.9-3.7
		c-2.7-3.1-9.1-8.7-10.2-10.1c-2-2.7-6.3-8.6-9-10.1c-1.6-0.9-4.6-3.1-6.1-3.6c-1.8-0.6-4.3-1.1-5.9-1.9c0.5-0.2,15-0.2,15.8,0
		c7.2,1.9,20.3,11.3,23.4,16.5c1.5,2.5,3.3,4.4,4.9,7.2c1.6,2.8,3.6,3.9,3.9,7.5C93.5,58,88.1,58.2,86.8,58 M104.5,55.2
		c-6.7,3.2-7,0.4-7.8-1l-4.4-5.7c-1.1-1.3-0.9-1.6-1.6-2.9c-1-1.6-2.9-4-4.1-5.7c-1.7-2.4-3.5-3.6-5.4-5.6
		c-3.5-3.8-8.4-5.6-12.3-8.9c2.2-0.2,8.9,2.2,11.2,3.2c2.2,1,3.4,1.7,5.8,2.4c4.7,1.5,19.6,11.5,21.6,15.7c1.6,3.3,2.3,1.6,2.9,4.7
		C108.3,52.6,106.5,54.3,104.5,55.2 M122.8,47.6c-1.6,0.8-5.5,1.5-6.4,1.8c-1.1,0.4-1.9,0.6-3,0.8c-1.3-1.9-2.3-3.5-4.1-5.2
		c-1.4-1.3-3.3-3.4-4.8-4.6c-1.3-1.1-11-7.5-11.1-7.7c1.4,0.4,2.6,0.9,4.2,1.1c6.4,1,12.9-0.4,20.7,4.9c6.8,4.7,4,3.5,5.7,5.4
		c0.5,0.6,1.1,1.1,1.7,1.7C124.7,46.3,123.8,47.2,122.8,47.6 M128.6,44.1c-3.5-3.6-11.4-8.7-16.1-10.2c2.7-1.1,11.7-1,15.1-0.9
		c8.5,0.1,3.3,1.2,7.2,1.4c2.9,0.1,5.6,2.8,7.9,4.6C140.4,40.2,134.5,40.2,128.6,44.1 M146.8,38.6c-0.9-0.2-2.2-1.3-2.4-1.3
		c0,0-2.5-1.9-2.5-2c-1.6-1.2,1.4-0.3,2-0.6c-0.1,0.1,3.2,1.4,3.4,1.6c1,0.5,3.3,0.7,3.9,1c0.9,0.5,4.6,1.7,5.7,2.7
		C157.1,40.2,147.2,38.7,146.8,38.6 M155,36.5c-4-1.1-3.2-1.7-10.9-3.5c-6.1-1.5-12.8-1.4-14.3-1.8c4.2-2.6,10.8-2.4,14.8-5.1
		c3.3,1.2,12.8,9.3,14.1,12.3C157.5,37.7,156.4,36.9,155,36.5"/>
</g>
</svg>
