<?xml version="1.0" encoding="utf-8"?>
<!-- Generator: Adobe Illustrator 22.0.1, SVG Export Plug-In . SVG Version: 6.00 Build 0)  -->
<svg version="1.1" id="Слой_1" xmlns="http://www.w3.org/2000/svg" xmlns:xlink="http://www.w3.org/1999/xlink" x="0px" y="0px"
	 viewBox="0 0 324 91" style="enable-background:new 0 0 324 91;" xml:space="preserve">
<style type="text/css">
	.st0{fill:#FFFFFF;}
	.st1{fill:#E82022;}
	.st2{fill:#010101;}
</style>
<path class="st0" d="M73.9,18.5H18.2c-1.1,0-2-0.9-2-2v-1c0-1.1,0.9-2,2-2h55.7c1.1,0,2,0.9,2,2v1C75.9,17.6,75,18.5,73.9,18.5z"/>
<g>
	<g>
		<path class="st0" d="M172.1,45.5c0-16.1,15.2-29.2,33.8-29.2c9.3,0,17.9,3.2,24.2,8.8c0.9,0.8,0.9,1.6,0,2.4s-1.9,0.8-2.8,0
			c-5.7-5.1-13.1-7.7-21.3-7.7c-16.5,0-29.7,11.5-29.7,25.7c0,14.3,13.2,25.9,29.7,25.9c8.2,0,15.7-2.6,21.3-7.7
			c0.9-0.8,1.9-0.8,2.8,0c0.9,0.8,0.9,1.6,0,2.4c-6.3,5.7-14.9,8.8-24.2,8.8C187.2,74.8,172.1,61.6,172.1,45.5z"/>
		<path class="st0" d="M205.9,75.3c-18.9,0-34.4-13.4-34.4-29.8s15.4-29.7,34.4-29.7c9.4,0,18.1,3.2,24.6,9c0.5,0.5,0.8,1,0.8,1.6
			c0,0.5-0.3,1.1-0.8,1.6c-1.1,0.9-2.5,0.9-3.6,0c-5.5-5-12.7-7.6-20.9-7.6c-16.1,0-29.1,11.3-29.1,25.2c0,14,13.1,25.4,29.1,25.4
			c8.2,0,15.4-2.6,20.9-7.6c1.1-1,2.5-1,3.6,0c0.6,0.5,0.8,1,0.8,1.6c0,0.5-0.3,1.1-0.8,1.6C224,72.1,215.3,75.3,205.9,75.3z
			 M205.9,16.7c-18.3,0-33.2,12.9-33.2,28.7c0,15.9,14.9,28.8,33.2,28.8c9.1,0,17.5-3.1,23.8-8.7c0.3-0.3,0.5-0.6,0.5-0.8
			s-0.2-0.6-0.5-0.8c-0.7-0.6-1.4-0.6-2,0c-5.7,5.2-13.2,7.9-21.7,7.9c-16.7,0-30.3-11.8-30.3-26.4c0-14.5,13.6-26.2,30.3-26.2
			c8.5,0,16,2.7,21.7,7.9c0.7,0.6,1.4,0.6,2,0c0.3-0.3,0.5-0.6,0.5-0.8c0-0.3-0.2-0.6-0.5-0.8C223.4,19.8,215,16.7,205.9,16.7z"/>
	</g>
</g>
<g>
	<path class="st1" d="M188,70.3l2.7-2.7c-1.6-0.9-3.2-1.8-4.6-2.9l-2.6,2.6C184.9,68.5,186.4,69.5,188,70.3z"/>
	<path class="st1" d="M188.1,71l-0.4-0.2c-1.6-0.9-3.2-1.9-4.7-3.1l-0.4-0.3L186,64l0.4,0.3c1.4,1.1,2.9,2.1,4.5,2.9l0.6,0.3
		L188.1,71z M184.2,67.3c1.2,0.9,2.4,1.7,3.7,2.4l1.9-1.9c-1.3-0.7-2.5-1.5-3.7-2.4L184.2,67.3z"/>
</g>
<path class="st0" d="M308.9,16.2l-0.9-0.4c-1-0.5-2.2-0.1-2.7,0.9l-25.2,51.4l-25.2-51.4c-0.5-1-1.7-1.4-2.7-0.9l-0.9,0.4
	c-1,0.5-1.4,1.7-0.9,2.7l27.1,55.3c0.2,0.5,0.6,0.8,1.1,1c0.2,0.1,0.5,0.2,0.7,0.2h1.6c0.3,0,0.5-0.1,0.8-0.2c0.4-0.2,0.8-0.5,1-0.9
	L309.8,19C310.3,17.9,309.9,16.7,308.9,16.2z"/>
<path class="st0" d="M52.1,45.5H18.2c-1.1,0-2-0.9-2-2v-1c0-1.1,0.9-2,2-2h33.9c1.1,0,2,0.9,2,2v1C54.1,44.6,53.2,45.5,52.1,45.5z"
	/>
<path class="st0" d="M73.9,73.2H18.2c-1.1,0-2-0.9-2-2v-1c0-1.1,0.9-2,2-2h55.7c1.1,0,2,0.9,2,2v1C75.9,72.3,75,73.2,73.9,73.2z"/>
<path class="st1 st2" d="M131.8,40.3l22.3-22.7c0.8-0.8,0.8-2.1,0-2.8l-0.7-0.7c-0.8-0.8-2.1-0.8-2.8,0l-22.3,22.7L131.8,40.3z"/>
<path class="st0" d="M122,42.2c-8.8,9-17.6,17.9-26.5,26.9c-0.8,0.8-0.8,2.1,0,2.8l0.7,0.7c0.8,0.8,2.1,0.8,2.8,0
	c8.8-9,17.7-18,26.5-27C124.4,44.5,123.2,43.4,122,42.2z"/>
<path class="st0" d="M95.5,17.6l55,55c0.8,0.8,2,0.8,2.8,0l0.7-0.7c0.8-0.8,0.8-2,0-2.8l-55-55c-0.8-0.8-2-0.8-2.8,0l-0.7,0.7
	C94.8,15.6,94.8,16.9,95.5,17.6z"/>
</svg>
